<svg width="34" height="34" viewBox="0 0 34 34" fill="none" xmlns="http://www.w3.org/2000/svg">
<path d="M18.125 11.4583C17.8194 11.1527 17.4372 11.0072 16.9783 11.0216C16.5205 11.035 16.1389 11.1944 15.8333 11.5C15.5278 11.8055 15.375 12.1944 15.375 12.6666C15.375 13.1388 15.5278 13.5277 15.8333 13.8333L17.3333 15.3333H11.9583C11.4861 15.3333 11.0972 15.4933 10.7917 15.8133C10.4861 16.1322 10.3333 16.5277 10.3333 17C10.3333 17.4722 10.4928 17.8683 10.8117 18.1883C11.1317 18.5072 11.5278 18.6666 12 18.6666H17.3333L15.7917 20.2083C15.4861 20.5138 15.34 20.8961 15.3533 21.355C15.3678 21.8127 15.5278 22.1944 15.8333 22.5C16.1389 22.8055 16.5278 22.9583 17 22.9583C17.4722 22.9583 17.8611 22.8055 18.1667 22.5L22.5 18.1666C22.8333 17.8333 23 17.4444 23 17C23 16.5555 22.8333 16.1666 22.5 15.8333L18.125 11.4583ZM17 0.333294C19.3055 0.333294 21.4722 0.771072 23.5 1.64663C25.5278 2.52107 27.2917 3.70829 28.7917 5.20829C30.2917 6.70829 31.4789 8.47218 32.3533 10.5C33.2289 12.5277 33.6667 14.6944 33.6667 17C33.6667 19.3055 33.2289 21.4722 32.3533 23.5C31.4789 25.5277 30.2917 27.2916 28.7917 28.7916C27.2917 30.2916 25.5278 31.4794 23.5 32.355C21.4722 33.2294 19.3055 33.6666 17 33.6666C14.6944 33.6666 12.5278 33.2294 10.5 32.355C8.47221 31.4794 6.70832 30.2916 5.20832 28.7916C3.70832 27.2916 2.5211 25.5277 1.64666 23.5C0.771103 21.4722 0.333324 19.3055 0.333324 17C0.333324 14.6944 0.771103 12.5277 1.64666 10.5C2.5211 8.47218 3.70832 6.70829 5.20832 5.20829C6.70832 3.70829 8.47221 2.52107 10.5 1.64663C12.5278 0.771072 14.6944 0.333294 17 0.333294ZM17 3.66663C13.3055 3.66663 10.1594 4.96496 7.56166 7.56163C4.96499 10.1594 3.66666 13.3055 3.66666 17C3.66666 20.6944 4.96499 23.8405 7.56166 26.4383C10.1594 29.035 13.3055 30.3333 17 30.3333C20.6944 30.3333 23.84 29.035 26.4367 26.4383C29.0344 23.8405 30.3333 20.6944 30.3333 17C30.3333 13.3055 29.0344 10.1594 26.4367 7.56163C23.84 4.96496 20.6944 3.66663 17 3.66663Z" fill="#5699E8"/>
</svg>
