<svg width="40" height="40" viewBox="0 0 40 40" fill="none" xmlns="http://www.w3.org/2000/svg">
<g opacity="0.2">
<path d="M18.875 25.5417C19.1805 25.8473 19.5628 25.9928 20.0216 25.9784C20.4794 25.965 20.8611 25.8056 21.1666 25.5C21.4722 25.1945 21.625 24.8056 21.625 24.3334C21.625 23.8612 21.4722 23.4723 21.1666 23.1667L19.6666 21.6667L25.0416 21.6667C25.5139 21.6667 25.9028 21.5067 26.2083 21.1867C26.5139 20.8678 26.6666 20.4723 26.6666 20C26.6666 19.5278 26.5072 19.1317 26.1883 18.8117C25.8683 18.4928 25.4722 18.3334 25 18.3334L19.6666 18.3334L21.2083 16.7917C21.5139 16.4862 21.66 16.1039 21.6466 15.645C21.6322 15.1873 21.4722 14.8056 21.1666 14.5C20.8611 14.1945 20.4722 14.0417 20 14.0417C19.5278 14.0417 19.1389 14.1945 18.8333 14.5L14.5 18.8334C14.1666 19.1667 14 19.5556 14 20C14 20.4445 14.1666 20.8334 14.5 21.1667L18.875 25.5417ZM20 36.6667C17.6944 36.6667 15.5278 36.2289 13.5 35.3534C11.4722 34.4789 9.70831 33.2917 8.20831 31.7917C6.70831 30.2917 5.52109 28.5278 4.64665 26.5C3.77109 24.4723 3.33331 22.3056 3.33331 20C3.33331 17.6945 3.77109 15.5278 4.64665 13.5C5.52109 11.4723 6.70831 9.70837 8.20831 8.20837C9.70831 6.70837 11.4722 5.5206 13.5 4.64504C15.5278 3.7706 17.6944 3.33337 20 3.33337C22.3055 3.33337 24.4722 3.7706 26.5 4.64504C28.5278 5.5206 30.2916 6.70837 31.7916 8.20837C33.2916 9.70837 34.4789 11.4723 35.3533 13.5C36.2289 15.5278 36.6666 17.6945 36.6666 20C36.6666 22.3056 36.2289 24.4723 35.3533 26.5C34.4789 28.5278 33.2916 30.2917 31.7916 31.7917C30.2916 33.2917 28.5278 34.4789 26.5 35.3534C24.4722 36.2289 22.3055 36.6667 20 36.6667ZM20 33.3334C23.6944 33.3334 26.8405 32.035 29.4383 29.4384C32.035 26.8406 33.3333 23.6945 33.3333 20C33.3333 16.3056 32.035 13.1595 29.4383 10.5617C26.8405 7.96504 23.6944 6.66671 20 6.66671C16.3055 6.66671 13.16 7.96504 10.5633 10.5617C7.96553 13.1595 6.66665 16.3056 6.66665 20C6.66665 23.6945 7.96553 26.8406 10.5633 29.4384C13.16 32.035 16.3055 33.3334 20 33.3334Z" fill="black"/>
</g>
</svg>
