<svg width="21" height="21" viewBox="0 0 21 21" fill="none" xmlns="http://www.w3.org/2000/svg">
<path d="M17.9123 3.0625C15.9377 1.09375 13.3049 0 10.5259 0C4.74842 0 0.0679283 4.66667 0.0679283 10.4271C0.0679283 12.25 0.579858 14.0729 1.45745 15.6042L-0.00520325 21L5.55288 19.5417C7.08866 20.3438 8.77071 20.7812 10.5259 20.7812C16.3034 20.7812 20.9839 16.1146 20.9839 10.3542C20.9107 7.65625 19.8869 5.03125 17.9123 3.0625ZM15.572 14.1458C15.3527 14.7292 14.3288 15.3125 13.8169 15.3854C13.3781 15.4583 12.793 15.4583 12.2079 15.3125C11.8423 15.1667 11.3304 15.0208 10.7453 14.7292C8.11252 13.6354 6.43047 11.0104 6.28421 10.7917C6.13794 10.6458 5.18722 9.40625 5.18722 8.09375C5.18722 6.78125 5.84541 6.19792 6.06481 5.90625C6.2842 5.61458 6.57673 5.61458 6.79613 5.61458C6.9424 5.61458 7.16179 5.61458 7.30806 5.61458C7.45432 5.61458 7.67372 5.54167 7.89312 6.05208C8.11252 6.5625 8.62445 7.875 8.69758 7.94792C8.77071 8.09375 8.77071 8.23958 8.69758 8.38542C8.62445 8.53125 8.55131 8.67708 8.40505 8.82292C8.25878 8.96875 8.11252 9.1875 8.03938 9.26042C7.89312 9.40625 7.74686 9.55208 7.89312 9.77083C8.03939 10.0625 8.55132 10.8646 9.35577 11.5937C10.3796 12.4687 11.1841 12.7604 11.4766 12.9063C11.7692 13.0521 11.9154 12.9792 12.0617 12.8333C12.2079 12.6875 12.7199 12.1042 12.8661 11.8125C13.0124 11.5208 13.2318 11.5938 13.4512 11.6667C13.6706 11.7396 14.987 12.3958 15.2064 12.5417C15.4989 12.6875 15.6452 12.7604 15.7183 12.8333C15.7914 13.0521 15.7914 13.5625 15.572 14.1458Z" fill="white"/>
</svg>
