<svg width="19" height="19" viewBox="0 0 19 19" fill="none" xmlns="http://www.w3.org/2000/svg">
<path d="M9.96921 9.24933L4.70117 3.98661C4.59916 3.89926 4.46795 3.85361 4.33376 3.8588C4.19957 3.86398 4.07227 3.91961 3.97731 4.01457C3.88235 4.10953 3.82672 4.23683 3.82153 4.37102C3.81635 4.50522 3.862 4.63643 3.94935 4.73843L8.78017 9.56925L4.08798 14.2614C3.98867 14.3613 3.93293 14.4965 3.93293 14.6373C3.93293 14.7782 3.98867 14.9134 4.08798 15.0133C4.13755 15.0632 4.19652 15.1029 4.2615 15.13C4.32647 15.157 4.39617 15.171 4.46656 15.171C4.53694 15.171 4.60664 15.157 4.67161 15.13C4.73659 15.1029 4.79556 15.0632 4.84513 15.0133L9.96921 9.88917C10.0539 9.80422 10.1014 9.68918 10.1014 9.56925C10.1014 9.44932 10.0539 9.33428 9.96921 9.24933Z" fill="#2A55F6"/>
<path d="M15.0773 9.24933L9.80926 3.98661C9.70726 3.89926 9.57605 3.85361 9.44185 3.8588C9.30766 3.86398 9.18036 3.91961 9.0854 4.01457C8.99044 4.10953 8.93481 4.23683 8.92963 4.37102C8.92444 4.50522 8.97009 4.63643 9.05744 4.73843L13.8883 9.56925L9.19608 14.2614C9.09677 14.3613 9.04102 14.4965 9.04102 14.6373C9.04102 14.7782 9.09677 14.9134 9.19608 15.0133C9.29598 15.1126 9.43112 15.1683 9.57198 15.1683C9.71285 15.1683 9.84799 15.1126 9.94789 15.0133L15.0773 9.88917C15.162 9.80422 15.2095 9.68918 15.2095 9.56925C15.2095 9.44932 15.162 9.33428 15.0773 9.24933Z" fill="#2A55F6"/>
</svg>
